<?xml version="1.0" encoding="UTF-8" standalone="no"?>
<svg
   xmlns:dc="http://purl.org/dc/elements/1.1/"
   xmlns:cc="http://creativecommons.org/ns#"
   xmlns:rdf="http://www.w3.org/1999/02/22-rdf-syntax-ns#"
   xmlns:svg="http://www.w3.org/2000/svg"
   xmlns="http://www.w3.org/2000/svg"
   viewBox="0 600 1706.6667 506.6667"
   xml:space="preserve"
   id="svg2"
   version="1.1"><metadata
     id="metadata8"><rdf:RDF><cc:Work
         rdf:about=""><dc:format>image/svg+xml</dc:format><dc:type
           rdf:resource="http://purl.org/dc/dcmitype/StillImage" /></cc:Work></rdf:RDF></metadata><defs
     id="defs6" /><g
     transform="matrix(1.3333333,0,0,-1.3333333,0,1706.6667)"
     id="g10"><g
       transform="scale(0.1)"
       id="g12"><path
         id="path14"
         style="fill:#ef3a20;fill-opacity:1;fill-rule:nonzero;stroke:none"
         d="m 2729.26,6169.83 v 468.48 c 160.46,31.46 281.53,172.82 281.53,342.49 0,192.76 -156.29,349.02 -349.04,349.02 -95.78,0 -182.58,-38.59 -245.62,-101.08 l -439.91,274.05 c 1.6,13.65 2.44,27.48 2.44,41.54 0,192.75 -156.26,349.01 -349.01,349.01 -192.76,0 -349.01,-156.26 -349.01,-349.01 0,-192.75 156.25,-349.01 349.01,-349.01 129.68,0 242.86,70.75 303.01,175.74 l 407.69,-254 c -17.75,-41.85 -27.61,-87.91 -27.61,-136.26 0,-169.67 121.08,-311.03 281.51,-342.49 v -468.48 c -160.43,-31.42 -281.51,-172.82 -281.51,-342.49 0,-192.76 156.29,-348.98 349.01,-348.98 192.75,0 349.04,156.22 349.04,348.98 0,169.67 -121.07,311.07 -281.53,342.49" /><path
         id="path16"
         style="fill:#ef3a20;fill-opacity:1;fill-rule:nonzero;stroke:none"
         d="m 1978.65,6404.07 c 0,192.75 -156.26,349.01 -349.01,349.01 -192.72,0 -349.01,-156.26 -349.01,-349.01 0,-169.64 121.07,-310.88 281.5,-342.34 v -463.6 c -86.02,-16.85 -160.71,-65.32 -211.49,-132.79 l -392.316,244.4 c 13.16,36.75 20.321,76.33 20.321,117.61 0,169.64 -121.047,311.04 -281.508,342.49 v 468.48 c 160.461,31.43 281.508,172.82 281.508,342.46 0,192.79 -156.227,349.02 -348.977,349.02 -192.785,0 -349.012,-156.23 -349.012,-349.02 0,-169.64 121.043,-311.03 281.504,-342.46 v -468.48 c -160.461,-31.45 -281.504,-172.85 -281.504,-342.49 0,-192.75 156.227,-349.01 349.012,-349.01 103.004,0 195.609,44.62 259.484,115.62 L 1291.7,5343.17 c -7.22,-27.96 -11.07,-57.3 -11.07,-87.5 0,-192.75 156.29,-349.01 349.01,-349.01 192.75,0 349.01,156.26 349.01,349.01 0,169.64 -121.05,311.04 -281.51,342.46 v 463.6 c 160.43,31.46 281.51,172.7 281.51,342.34" /><path
         id="path18"
         style="fill:#211c1d;fill-opacity:1;fill-rule:nonzero;stroke:none"
         d="m 9212.61,7306.08 c 23.27,0 43.84,-5.43 62.17,-16.24 18.17,-10.85 32.49,-24.69 42.85,-41.93 l -36.49,-28.11 c -17.21,26.12 -39.84,39.44 -68.02,39.44 -13.74,0 -25.68,-3.43 -34.92,-10.36 -9.41,-6.87 -14.38,-16.76 -14.38,-29.57 0,-11.33 3.53,-19.67 10.4,-25.64 6.86,-5.91 18.64,-13.32 35.05,-20.71 l 36.33,-16.75 c 26.16,-11.88 45.9,-25.65 58.78,-39.93 12.77,-14.32 19.16,-32.04 19.16,-53.22 0,-28.12 -10.37,-50.85 -31.07,-68.05 -20.71,-17.27 -46.87,-25.65 -78.39,-25.65 -26.64,0 -50.71,6.36 -71.9,18.71 -21.18,12.36 -37.94,29.57 -50.36,51.81 l 36.98,28.06 c 24.23,-34.51 52.74,-51.75 85.86,-51.75 16.76,0 30.49,3.92 40.83,12.3 10.34,8.44 15.76,19.26 15.76,33.06 0,11.3 -3.34,20.22 -10.82,26.61 -7.35,6.45 -19.64,13.8 -36.97,21.67 l -36.02,16.81 c -24.07,11.3 -42.85,23.18 -56.11,37.46 -13.35,14.26 -19.74,32.04 -19.74,53.22 0,26.13 9.86,47.32 29.6,63.59 19.64,16.31 43.88,24.69 72.89,24.69 l -1.47,0.48" /><path
         id="path20"
         style="fill:#211c1d;fill-opacity:1;fill-rule:nonzero;stroke:none"
         d="m 9538.81,6974.3 h -52.25 v 325.42 h 52.25 V 6974.3" /><path
         id="path22"
         style="fill:#211c1d;fill-opacity:1;fill-rule:nonzero;stroke:none"
         d="m 9820.13,7020.59 c 18.3,0 32.68,4.46 42.41,13.32 9.88,8.89 14.79,21.25 14.79,36.49 0,15.28 -4.91,27.64 -14.79,36.98 -9.73,9.37 -23.6,13.84 -41.89,13.84 h -44.49 v -101.11 h 44.49 z m -43.97,233.23 v -87.73 h 18.33 c 16.4,0 28.69,3.89 37.58,11.78 8.8,7.9 13.23,18.71 13.23,32.04 0,13.32 -4.43,24.2 -13.23,32.09 -8.89,7.9 -21.18,11.82 -37.58,11.82 z m 93.34,-102.08 c 19.16,-6.38 34.48,-16.72 45.29,-31 10.85,-14.35 16.28,-31.56 16.28,-51.78 0,-27.64 -9.76,-50.3 -29.02,-68.05 -19.29,-17.78 -44.94,-26.61 -76.49,-26.61 h -100.21 v 325.39 h 74.69 c 29.02,0 52.77,-7.87 70.43,-24.21 17.71,-16.24 26.6,-36.97 26.6,-62.56 0,-25.16 -9.37,-45.38 -27.57,-60.63 v -0.55" /><path
         id="path24"
         style="fill:#211c1d;fill-opacity:1;fill-rule:nonzero;stroke:none"
         d="M 10281.9,7253.34 H 10160 v -83.36 h 121.9 v -45.33 H 10160 v -103.04 h 121.9 v -46.83 h -174.2 v 325.39 h 174.2 v -46.83" /><path
         id="path26"
         style="fill:#211c1d;fill-opacity:1;fill-rule:nonzero;stroke:none"
         d="m 10532.9,7146.81 h 65.5 c 18.3,0 32.5,4.94 42.9,14.79 10.4,9.89 15.3,22.73 15.3,38.49 0,16.27 -4.9,29.08 -15.3,38.9 -10.4,9.89 -24.6,14.8 -42.9,14.8 h -65.5 z m 152.4,-172.02 -92.8,125.73 h -59.6 v -125.73 h -52.3 v 325.38 h 118.8 c 33.1,0 59.7,-9.4 79.9,-27.63 20.1,-18.23 30.5,-42.41 30.5,-71.97 0,-21.18 -5.4,-39.9 -16.2,-56.24 -10.9,-16.24 -26.2,-28.05 -45.9,-35.46 l 97.6,-134.08 h -60" /><path
         id="path28"
         style="fill:#211c1d;fill-opacity:1;fill-rule:nonzero;stroke:none"
         d="m 10938.4,6974.78 h -52.2 v 325.42 h 52.2 v -325.42" /><path
         id="path30"
         style="fill:#211c1d;fill-opacity:1;fill-rule:nonzero;stroke:none"
         d="m 11214.9,7208.95 -54.2,-135.07 h 107.9 z m 73,-179.91 h -146.4 l -23.2,-54.25 h -55.7 l 143.4,330.81 h 17.8 l 143.4,-330.81 h -56.2 l -23.1,54.25" /><path
         id="path32"
         style="fill:#211c1d;fill-opacity:1;fill-rule:nonzero;stroke:none"
         d="m 11746.5,7300.18 v -330.84 h -17.8 l -198.1,225.34 v -219.91 h -52.3 v 330.84 h 18.2 l 197.8,-224.85 v 219.42 h 52.2" /><path
         id="path34"
         style="fill:#211c1d;fill-opacity:1;fill-rule:nonzero;stroke:none"
         d="m 9325.11,6513.4 h -156.8 v -97.13 h 129.1 v -47.31 h -129.1 v -134.11 h -52.29 v 325.38 h 209.09 v -46.83" /><path
         id="path36"
         style="fill:#211c1d;fill-opacity:1;fill-rule:nonzero;stroke:none"
         d="m 9657.85,6513.4 h -119.02 v -83.33 h 119.02 v -45.35 h -119.02 v -103.04 h 119.02 v -46.83 h -171.28 v 325.38 h 171.28 v -46.83" /><path
         id="path38"
         style="fill:#211c1d;fill-opacity:1;fill-rule:nonzero;stroke:none"
         d="m 9880.47,6512.92 v -231.24 h 49.24 c 37.94,0 68.05,10.85 90.19,32.55 22.2,21.66 33.6,49.78 33.6,83.81 0,34.98 -10.8,63.1 -33.1,83.81 -22.16,20.73 -52.27,31.07 -90.17,31.07 z m 50.2,47.34 c 53.83,0 96.73,-14.83 128.73,-44.87 32.1,-30.11 48.3,-69.08 48.3,-117.35 0,-47.83 -16.2,-86.77 -48.7,-117.36 -32.7,-30.56 -75.56,-45.83 -128.77,-45.83 h -102.05 v 325.41 h 102.05 0.44" /><path
         id="path40"
         style="fill:#211c1d;fill-opacity:1;fill-rule:nonzero;stroke:none"
         d="m 10430,6513.4 h -121.1 v -83.33 h 121.1 v -45.35 h -121.1 v -103.04 h 121.1 v -46.83 h -173.4 v 325.38 h 173.4 v -46.83" /><path
         id="path42"
         style="fill:#211c1d;fill-opacity:1;fill-rule:nonzero;stroke:none"
         d="m 10650.5,6406.89 h 65.5 c 18.3,0 32.5,4.94 42.8,14.8 10.4,9.88 15.3,22.69 15.3,38.48 0,16.28 -4.9,29.08 -15.3,38.91 -10.3,9.88 -24.5,14.79 -42.8,14.79 h -65.5 z m 152.3,-172.05 -92.7,125.73 h -59.6 v -125.73 h -52.3 v 325.42 h 118.7 c 33.2,0 59.8,-9.41 79.9,-27.64 20.2,-18.23 30.6,-42.4 30.6,-71.97 0,-21.18 -5.4,-39.93 -16.3,-56.23 -10.8,-16.25 -26.1,-28.06 -45.9,-35.47 l 97.7,-134.11 h -60.1" /><path
         id="path44"
         style="fill:#211c1d;fill-opacity:1;fill-rule:nonzero;stroke:none"
         d="m 11083.5,6469.03 -54.2,-135.07 h 107.9 z m 72.9,-179.91 H 11010 l -23.1,-54.28 h -55.8 l 143.5,330.84 h 17.8 l 143.4,-330.84 h -56.2 l -23.2,54.28" /><path
         id="path46"
         style="fill:#211c1d;fill-opacity:1;fill-rule:nonzero;stroke:none"
         d="m 11402.2,6281.69 h 148.8 v -46.83 h -201.1 v 325.38 h 52.3 v -278.55" /><path
         id="path48"
         style="fill:#211c1d;fill-opacity:1;fill-rule:nonzero;stroke:none"
         d="m 9378.34,5623.6 c -0.52,-42.37 -12.43,-75.91 -36.95,-100.56 -24.72,-24.69 -56.75,-36.98 -95.78,-36.98 -39.87,0 -71.9,12.29 -96.59,36.98 -24.68,24.65 -36.98,58.19 -36.98,100.56 v 193.78 h 52.29 v -197.21 c 0,-27.64 7.8,-48.82 23.11,-63.59 15.28,-14.8 35.06,-22.21 59.26,-22.21 23.62,0 42.85,7.41 58.16,22.21 15.31,14.77 22.66,35.95 22.66,63.59 v 197.21 h 52.26 l -1.44,-193.78" /><path
         id="path50"
         style="fill:#211c1d;fill-opacity:1;fill-rule:nonzero;stroke:none"
         d="m 9828.19,5814.43 v -330.81 h -17.82 l -198.11,225.3 V 5489.01 H 9560 v 330.84 h 18.17 L 9775.93,5595 v 219.43 h 52.26" /><path
         id="path52"
         style="fill:#211c1d;fill-opacity:1;fill-rule:nonzero;stroke:none"
         d="m 10064.4,5489.02 h -52.2 v 325.42 h 52.2 v -325.42" /><path
         id="path54"
         style="fill:#211c1d;fill-opacity:1;fill-rule:nonzero;stroke:none"
         d="m 10515.7,5817.14 -143.4,-330.81 h -17.9 l -143.4,330.81 h 58.7 l 93.7,-226.27 93.7,226.27 h 58.6" /><path
         id="path56"
         style="fill:#211c1d;fill-opacity:1;fill-rule:nonzero;stroke:none"
         d="m 10832.8,5767.58 h -122.6 v -83.33 h 122.6 v -45.36 h -122.6 v -103.03 h 122.6 v -46.84 h -174.9 v 325.39 h 174.9 v -46.83" /><path
         id="path58"
         style="fill:#211c1d;fill-opacity:1;fill-rule:nonzero;stroke:none"
         d="m 11062.5,5661.06 h 65.5 c 18.3,0 32.5,4.94 42.9,14.8 10.3,9.88 15.3,22.69 15.3,38.48 0,16.28 -5,29.09 -15.3,38.91 -10.4,9.89 -24.6,14.8 -42.9,14.8 h -65.5 z m 152.3,-172.05 -92.7,125.73 h -59.6 v -125.73 h -52.3 v 325.42 h 118.8 c 33.1,0 59.7,-9.41 79.8,-27.64 20.2,-18.23 30.6,-42.4 30.6,-71.96 0,-21.19 -5.4,-39.9 -16.3,-56.24 -10.8,-16.24 -26.1,-28.06 -45.9,-35.47 l 97.7,-134.11 h -60.1" /><path
         id="path60"
         style="fill:#211c1d;fill-opacity:1;fill-rule:nonzero;stroke:none"
         d="m 11502.2,5823.34 c 23.3,0 43.9,-5.39 62.2,-16.24 18.2,-10.85 32.5,-24.68 42.8,-41.92 l -36.4,-28.12 c -17.3,26.13 -39.9,39.45 -68.1,39.45 -13.7,0 -25.6,-3.43 -34.9,-10.37 -9.4,-6.87 -14.3,-16.72 -14.3,-29.56 0,-11.33 3.5,-19.71 10.3,-25.65 6.9,-5.9 18.7,-13.32 35.1,-20.7 l 36.3,-16.76 c 26.2,-11.87 45.9,-25.64 58.8,-39.93 12.8,-14.31 19.1,-32.03 19.1,-53.22 0,-28.12 -10.3,-50.81 -31,-68.05 -20.7,-17.27 -46.9,-25.64 -78.4,-25.64 -26.6,0 -50.7,6.35 -71.9,18.71 -21.2,12.36 -37.9,29.56 -50.4,51.81 l 37,28.05 c 24.2,-34.5 52.7,-51.74 85.9,-51.74 16.7,0 30.5,3.91 40.8,12.29 10.4,8.44 15.8,19.29 15.8,33.06 0,11.34 -3.4,20.23 -10.9,26.61 -7.3,6.46 -19.6,13.81 -36.9,21.67 l -36,16.82 c -24.1,11.33 -42.9,23.18 -56.2,37.46 -13.3,14.25 -19.7,32.03 -19.7,53.22 0,26.13 9.9,47.31 29.6,63.59 19.7,16.33 43.9,24.68 72.9,24.68 l -1.5,0.48" /><path
         id="path62"
         style="fill:#211c1d;fill-opacity:1;fill-rule:nonzero;stroke:none"
         d="m 11815,5489.02 h -52.3 v 325.42 h 52.3 v -325.42" /><path
         id="path64"
         style="fill:#211c1d;fill-opacity:1;fill-rule:nonzero;stroke:none"
         d="m 12151.4,5767.58 h -70.9 v -278.56 h -52.2 v 278.56 h -70.4 v 46.83 h 193.5 v -46.83" /><path
         id="path66"
         style="fill:#211c1d;fill-opacity:1;fill-rule:nonzero;stroke:none"
         d="m 12407,5620.65 v -131.63 h -52.3 v 131.15 l -112.4,194.26 h 58.2 l 80.3,-141.52 80.8,141.52 h 57.7 L 12407,5620.65" /><path
         id="path68"
         style="fill:#211c1d;fill-opacity:1;fill-rule:nonzero;stroke:none"
         d="m 8512.2,5483.6 h -52.77 v 1824.04 h 52.77 V 5483.6" /><path
         id="path70"
         style="fill:#211c1d;fill-opacity:1;fill-rule:nonzero;stroke:none"
         d="m 3822.59,7305.9 c 30.11,0 57.2,-6.87 81.88,-20.15 24.68,-13.39 43.85,-31.56 58.16,-54.73 l -39.35,-29.12 c -24.2,37.46 -57.23,56.18 -99.12,56.18 -33.61,0 -61.66,-11.3 -83.84,-34.03 -22.28,-22.63 -33.58,-51.23 -33.58,-85.73 0,-34.54 11.3,-63.11 33.58,-85.8 22.18,-22.73 50.23,-34.03 83.84,-34.03 41.89,0 74.92,18.72 99.12,56.17 l 39.35,-29.08 c -13.8,-23.17 -32.99,-41.4 -57.68,-54.72 -24.68,-13.29 -51.77,-20.16 -81.85,-20.16 -47.86,0 -88.17,16.24 -121.3,48.27 -33,32.04 -49.27,72.03 -49.27,119.83 0,47.34 16.75,87.24 49.88,119.76 32.96,32.58 73.35,48.85 121.27,48.85 l -1.09,-1.51" /><path
         id="path72"
         style="fill:#211c1d;fill-opacity:1;fill-rule:nonzero;stroke:none"
         d="m 4461.99,7307.41 v -330.84 h -52.26 v 223.85 l -202.7,-229.28 h -18.2 v 330.84 h 52.29 v -223.34 l 203.02,228.77 h 17.85" /><path
         id="path74"
         style="fill:#211c1d;fill-opacity:1;fill-rule:nonzero;stroke:none"
         d="m 4784.61,7123.98 v -101.01 h 40.67 c 18.29,0 32.52,4.36 42.4,13.29 9.89,8.83 14.8,21.18 14.8,36.49 0,15.22 -4.91,27.58 -14.8,36.98 -9.88,9.31 -23.59,13.77 -41.92,13.77 z m 124.61,131.16 h -124.1 v -86.76 h 45.1 c 32.04,0 57.68,-8.86 76.94,-26.65 19.16,-17.75 29.05,-40.92 29.05,-69.52 0,-28.06 -9.27,-51.23 -28.57,-69.01 -19.29,-17.75 -44.9,-26.61 -76.94,-26.61 h -97.38 v 325.38 h 176.47 l -0.57,-46.83" /><path
         id="path76"
         style="fill:#211c1d;fill-opacity:1;fill-rule:nonzero;stroke:none"
         d="m 5447.21,7307.64 v -330.81 h -52.26 v 223.83 l -202.67,-229.25 h -18.2 v 330.81 h 52.26 v -223.31 l 203.06,228.73 h 17.81" /><path
         id="path78"
         style="fill:#211c1d;fill-opacity:1;fill-rule:nonzero;stroke:none"
         d="m 5737.85,7258.07 v -106.98 h 37.49 c 18.3,0 32.52,4.91 42.37,14.79 9.89,9.89 14.83,22.7 14.83,38.94 0,16.27 -4.94,29.11 -14.83,38.97 -9.85,9.82 -24.07,14.76 -42.37,14.76 z m 38.42,46.83 c 33.13,0 59.77,-9.37 79.96,-27.63 20.13,-18.24 30.53,-42.41 30.53,-71.97 0,-29.53 -10.4,-53.7 -30.53,-72.48 -20.19,-18.71 -46.83,-28.05 -79.96,-28.05 h -38.42 v -125.73 h -52.26 v 325.38 h 90.68 v 0.48" /><path
         id="path80"
         style="fill:#211c1d;fill-opacity:1;fill-rule:nonzero;stroke:none"
         d="m 6237.74,7305.9 c 30.07,0 57.2,-6.87 81.88,-20.15 24.68,-13.39 43.85,-31.56 58.16,-54.73 l -39.35,-29.12 c -24.24,37.46 -57.23,56.18 -99.12,56.18 -33.61,0 -61.66,-11.3 -83.84,-34.03 -22.28,-22.63 -33.58,-51.23 -33.58,-85.73 0,-34.54 11.3,-63.11 33.58,-85.8 22.18,-22.73 50.23,-34.03 83.84,-34.03 41.89,0 74.88,18.72 99.12,56.17 l 39.35,-29.08 c -13.83,-23.17 -33,-41.4 -57.68,-54.72 -24.68,-13.29 -51.81,-20.16 -81.88,-20.16 -47.83,0 -88.15,16.24 -121.31,48.27 -32.99,32.04 -49.23,72.03 -49.23,119.83 0,47.34 16.75,87.24 49.84,119.76 33,32.58 73.35,48.85 121.27,48.85 l -1.05,-1.51" /><path
         id="path82"
         style="fill:#211c1d;fill-opacity:1;fill-rule:nonzero;stroke:none"
         d="m 7351.6,7307.41 v -330.84 h -52.29 v 223.85 l -202.67,-229.28 h -18.2 v 330.84 h 52.29 v -223.34 l 203.02,228.77 h 17.85" /><path
         id="path84"
         style="fill:#211c1d;fill-opacity:1;fill-rule:nonzero;stroke:none"
         d="m 7700.33,7338.96 c -23.27,0 -42.5,7.38 -57.2,22.63 -14.83,15.31 -22.31,34.57 -22.31,57.68 h 41.92 c 0,-12.26 3.5,-22.15 10.37,-29.53 7,-7.42 16.24,-10.85 27.7,-10.85 11.3,0 20.7,3.43 27.57,10.85 6.87,7.38 10.37,17.27 10.37,29.53 h 41.92 c 0,-23.11 -7.48,-42.37 -22.18,-57.68 -14.8,-15.25 -34.09,-22.63 -57.2,-22.63 z m 142,-31.55 v -330.85 h -52.28 v 223.86 l -202.71,-229.25 h -18.17 v 330.81 h 52.29 v -223.34 l 203.03,228.77 h 17.84" /><path
         id="path86"
         style="fill:#211c1d;fill-opacity:1;fill-rule:nonzero;stroke:none"
         d="m 3857.16,6311.08 c 31.07,0 55.76,7.89 73.96,23.65 18.16,15.8 27.57,37.53 27.57,65.58 0,28.6 -8.8,50.85 -27.12,66.61 -18.17,15.79 -42.89,23.65 -73.93,23.65 V 6310.6 Z m -152.85,88.75 c 0,-28.12 9.4,-49.79 27.6,-65.55 18.3,-15.79 42.88,-23.68 73.92,-23.68 v 179.97 c -31.04,0 -55.62,-7.86 -73.92,-23.65 -18.2,-15.76 -27.09,-38.01 -27.09,-66.61 z m 308.08,1.99 c 0,-41.92 -14.19,-74.95 -42.88,-99.57 -28.54,-24.65 -65.52,-36.98 -111.42,-37.46 v -43.91 h -52.26 v 43.91 c -45.29,0.48 -82.23,13.29 -110.9,37.91 -28.53,24.65 -42.88,57.71 -42.88,99.12 0,41.44 14.35,73.96 42.88,98.09 28.67,24.14 65.61,36.5 111.39,36.98 v 40.96 h 52.28 v -40.96 c 45.87,-0.48 82.85,-12.84 111.42,-36.98 28.63,-24.13 42.95,-56.65 42.95,-98.09 h -0.58" /><path
         id="path88"
         style="fill:#211c1d;fill-opacity:1;fill-rule:nonzero;stroke:none"
         d="m 5371.73,6518.95 v -106.98 h 33.57 c 18.3,0 32.55,4.91 42.4,14.79 9.89,9.89 14.8,22.7 14.8,38.97 0,16.24 -4.91,29.08 -14.8,38.94 -9.85,9.82 -24.1,14.76 -42.4,14.76 z m 34.54,46.83 c 33.12,0 59.73,-9.37 79.95,-27.6 20.13,-18.27 30.5,-42.4 30.5,-72 0,-29.53 -10.37,-53.7 -30.5,-72.48 -20.22,-18.71 -46.83,-28.05 -79.95,-28.05 h -34.54 v -125.73 h -52.26 v 325.38 h 86.8 v 0.48" /><path
         id="path90"
         style="fill:#211c1d;fill-opacity:1;fill-rule:nonzero;stroke:none"
         d="m 5724.22,6470.84 -54.19,-135.08 h 107.92 z m 72.99,-179.92 h -146.44 l -23.14,-54.28 h -55.76 l 143.45,330.84 h 17.82 l 143.42,-330.84 h -56.24 l -23.11,54.28" /><path
         id="path92"
         style="fill:#211c1d;fill-opacity:1;fill-rule:nonzero;stroke:none"
         d="m 6410.89,6389.43 v -112.41 h 31.65 c 19.16,0 34,5.42 44.33,15.76 10.34,10.37 15.76,24.14 15.76,40.96 0,16.72 -5.42,30.52 -15.76,40.89 -10.33,10.34 -25.17,15.76 -44.33,15.76 z m 0,47.34 h 31.65 c 34,0 61.53,-9.4 82.27,-28.63 20.7,-19.19 31.07,-43.88 31.07,-73.92 0,-30.59 -10.37,-55.21 -31.07,-73.96 -20.74,-18.71 -48.27,-28.12 -82.27,-28.12 h -83.9 v 325.39 h 52.25 v -120.76" /><path
         id="path94"
         style="fill:#211c1d;fill-opacity:1;fill-rule:nonzero;stroke:none"
         d="m 7411.85,6236.19 h -52.25 v 325.41 h 52.25 z m -241.09,157.76 v -112.44 h 35.31 c 19.13,0 33.96,5.43 44.33,15.76 10.33,10.37 15.76,24.17 15.76,40.96 0,16.76 -5.43,30.53 -15.76,40.89 -10.37,10.37 -25.2,15.76 -44.33,15.76 z m 0,47.32 h 35.31 c 33.96,0 61.53,-9.38 82.24,-28.6 20.73,-19.2 31.07,-43.91 31.07,-73.96 0,-30.59 -10.34,-55.21 -31.07,-73.92 -20.71,-18.75 -48.28,-28.15 -82.24,-28.15 h -87.6 v 325.41 h 52.29 v -120.78" /><path
         id="path96"
         style="fill:#211c1d;fill-opacity:1;fill-rule:nonzero;stroke:none"
         d="m 7700.33,6599.04 c -23.27,0 -42.5,7.38 -57.2,22.63 -14.83,15.31 -22.31,34.57 -22.31,57.68 h 41.92 c 0,-12.26 3.5,-22.15 10.37,-29.56 7,-7.38 16.24,-10.85 27.7,-10.85 11.3,0 20.7,3.47 27.57,10.85 6.87,7.41 10.37,17.3 10.37,29.56 h 41.92 c 0,-23.11 -7.48,-42.37 -22.18,-57.68 -14.8,-15.25 -34.09,-22.63 -57.2,-22.63 z m 142,-31.55 v -330.84 h -52.28 v 223.82 l -202.71,-229.22 h -18.17 v 330.81 h 52.29 v -223.34 l 203.03,228.77 h 17.84" /><path
         id="path98"
         style="fill:#211c1d;fill-opacity:1;fill-rule:nonzero;stroke:none"
         d="m 3947.35,5822.14 -112.86,-261.83 c -19.74,-45.81 -54.28,-68.98 -103.07,-68.98 -13.26,0 -27.09,1.44 -41.44,4.91 v 45.35 c 19.77,-1.51 30.11,-2.47 31.07,-2.47 30.14,0 50.84,12.33 62.17,36.98 l -115.39,246.04 h 60.09 l 83.36,-187.88 76.49,187.88 h 59.58" /><path
         id="path100"
         style="fill:#211c1d;fill-opacity:1;fill-rule:nonzero;stroke:none"
         d="m 4375.85,5496.73 h -52.29 v 148.9 h -163.67 v -148.9 h -52.22 v 325.41 h 52.22 v -129.71 h 163.67 v 129.71 h 52.29 v -325.41" /><path
         id="path102"
         style="fill:#211c1d;fill-opacity:1;fill-rule:nonzero;stroke:none"
         d="m 4849.06,5827.56 v -330.84 h -52.26 v 223.85 l -202.67,-229.25 h -18.2 v 330.81 h 52.26 v -223.34 l 203.05,228.77 h 17.82" /><path
         id="path104"
         style="fill:#211c1d;fill-opacity:1;fill-rule:nonzero;stroke:none"
         d="m 5140.39,5545.77 c 18.3,0 32.65,4.46 42.4,13.32 9.89,8.89 14.8,21.25 14.8,36.46 0,15.31 -4.91,27.67 -14.8,36.98 -9.75,9.41 -23.59,13.87 -41.88,13.87 h -43.43 v -101.11 h 43.43 z M 5097.48,5779 v -87.76 h 17.39 c 16.28,0 28.54,3.92 37.46,11.81 8.8,7.9 13.23,18.72 13.23,32.04 0,13.29 -4.43,24.2 -13.23,32.1 -8.92,7.89 -21.18,11.81 -37.46,11.81 z m 92.31,-102.08 c 19.13,-6.38 34.41,-16.75 45.26,-31 10.85,-14.35 16.28,-31.56 16.28,-51.81 0,-27.6 -9.76,-50.27 -29.02,-68.02 -19.29,-17.78 -44.94,-26.64 -76.49,-26.64 h -99.16 v 325.42 h 73.64 c 29.01,0 52.74,-7.9 70.42,-24.21 17.72,-16.24 26.61,-36.97 26.61,-62.56 0,-25.16 -9.37,-45.38 -27.54,-60.63 v -0.55" /><path
         id="path106"
         style="fill:#211c1d;fill-opacity:1;fill-rule:nonzero;stroke:none"
         d="M 5839.76,5783.69 V 5676.7 h 34.83 c 18.3,0 32.52,4.91 42.37,14.8 9.89,9.89 14.83,22.69 14.83,38.94 0,16.27 -4.94,29.11 -14.83,38.96 -9.85,9.83 -24.07,14.77 -42.37,14.77 z m 35.79,46.83 c 33.1,0 59.74,-9.37 79.96,-27.64 20.13,-18.23 30.49,-42.37 30.49,-71.96 0,-29.53 -10.36,-53.7 -30.49,-72.48 -20.22,-18.75 -46.86,-28.06 -79.96,-28.06 h -35.79 v -125.73 h -52.29 v 325.39 h 88.08 v 0.48" /><path
         id="path108"
         style="fill:#211c1d;fill-opacity:1;fill-rule:nonzero;stroke:none"
         d="m 6266.42,5829.02 c 30.07,0 57.2,-6.87 81.88,-20.16 24.68,-13.35 43.85,-31.55 58.16,-54.73 l -39.48,-29.11 c -24.07,37.46 -57.1,56.2 -98.99,56.2 -33.61,0 -61.66,-11.33 -83.85,-34.02 -22.14,-22.63 -33.57,-51.26 -33.57,-85.77 0,-34.54 11.43,-63.11 33.57,-85.8 22.19,-22.69 50.24,-34.02 83.85,-34.02 41.89,0 74.92,18.74 98.99,56.17 l 39.48,-29.08 c -13.83,-23.18 -33,-41.41 -57.68,-54.73 -24.68,-13.29 -51.78,-20.16 -81.88,-20.16 -47.83,0 -88.15,16.24 -121.3,48.31 -32.97,32 -49.24,72 -49.24,119.79 0,47.35 16.75,87.28 49.75,119.79 33.09,32.58 73.47,48.83 121.4,48.83 l -1.09,-1.51" /><path
         id="path110"
         style="fill:#211c1d;fill-opacity:1;fill-rule:nonzero;stroke:none"
         d="m 6827.05,5827.56 v -330.84 h -52.26 v 223.85 l -202.67,-229.25 h -18.2 v 330.81 h 52.26 v -223.34 l 203.05,228.77 h 17.82" /><path
         id="path112"
         style="fill:#211c1d;fill-opacity:1;fill-rule:nonzero;stroke:none"
         d="M 7167.88,5775.29 H 7097 v -278.56 h -52.25 v 278.56 h -70.24 v 46.83 h 193.37 v -46.83" /><path
         id="path114"
         style="fill:#211c1d;fill-opacity:1;fill-rule:nonzero;stroke:none"
         d="m 7842.33,5775.29 h -70.88 v -278.56 h -52.26 v 278.56 h -70.36 v 46.83 h 193.5 v -46.83" /><path
         id="path116"
         style="fill:#211c1d;fill-opacity:1;fill-rule:nonzero;stroke:none"
         d="m 4346.51,6288.18 h -117 v 103 h 117 v 45.36 h -117 v 83.36 h 117 v 46.83 h -169.22 v -325.38 h 169.22 v 46.83" /><path
         id="path118"
         style="fill:#211c1d;fill-opacity:1;fill-rule:nonzero;stroke:none"
         d="m 5148.98,6283.51 h -126.12 v 103.03 h 121.78 v 45.33 h -121.78 v 83.33 h 126.12 v 46.86 H 4970.6 v -325.38 h 178.38 v 46.83" /><path
         id="path120"
         style="fill:#211c1d;fill-opacity:1;fill-rule:nonzero;stroke:none"
         d="m 5594.63,5546.3 h -124.29 v 103.04 h 121.79 v 45.35 h -121.79 v 83.33 h 124.29 v 46.83 h -176.54 v -325.38 h 176.54 v 46.83" /><path
         id="path122"
         style="fill:#211c1d;fill-opacity:1;fill-rule:nonzero;stroke:none"
         d="m 7506.98,5543.58 h -121.49 v 103.03 h 121.49 v 45.36 h -121.49 v 83.33 h 121.49 v 46.83 h -173.75 v -325.39 h 173.75 v 46.84" /><path
         id="path124"
         style="fill:#211c1d;fill-opacity:1;fill-rule:nonzero;stroke:none"
         d="m 6868.33,6976.58 h -64.58 l -150.9,173.07 136.58,152.34 h 64.07 l -135.14,-152.34 z m -280.38,325.41 h 52.25 v -325.41 h -52.25 v 325.41" /><path
         id="path126"
         style="fill:#211c1d;fill-opacity:1;fill-rule:nonzero;stroke:none"
         d="m 6680.55,7127.12 h -74.76 v 43.21 h 74.76 v -43.21" /><path
         id="path128"
         style="fill:#211c1d;fill-opacity:1;fill-rule:nonzero;stroke:none"
         d="m 6961.15,6232.13 h -52.26 v 148.91 h -163.67 v -148.91 h -52.26 v 325.42 h 52.26 v -129.71 h 163.67 v 129.71 h 52.26 v -325.42" /><path
         id="path130"
         style="fill:#211c1d;fill-opacity:1;fill-rule:nonzero;stroke:none"
         d="m 4567.91,6288.18 h 147.69 v 232.14 h -87.95 c -0.97,-110.17 -20.71,-187.69 -59.74,-232.14 m 241.03,0 v -116.55 h -52.35 v 69.62 h -219.81 v -69.62 h -52.36 v 116.55 h 25.2 c 22.21,19.26 39.03,46.89 50.88,82.94 11.87,36.08 17.78,85.99 17.78,149.2 v 46.41 h 190.15 v -279.07 l 40.51,0.52" /><path
         id="path132"
         style="fill:#211c1d;fill-opacity:1;fill-rule:nonzero;stroke:none"
         d="m 6208.21,6558.26 v -323.81 h -52.1 v 277.14 h -95.33 c -0.48,-50.62 -3.95,-93.86 -10.34,-129.74 -6.35,-35.86 -15.69,-63.85 -27.99,-84.52 -12.26,-20.64 -26.06,-35.85 -41.28,-45.71 -15.24,-9.79 -33.41,-16.21 -54.05,-18.68 v 48.66 c 28.02,5.91 48.66,26.55 61.92,61.95 13.29,35.37 20.16,89.43 20.16,162.61 v 53.09 l 199.01,-0.99" /></g></g></svg>